<svg xmlns="http://www.w3.org/2000/svg" xmlns:xlink="http://www.w3.org/1999/xlink" width="1080" zoomAndPan="magnify" viewBox="0 0 810 809.999993" height="1080" preserveAspectRatio="xMidYMid meet" version="1.0"><defs><clipPath id="1ec6f76752"><path d="M 13.445312 13.445312 L 796.445312 13.445312 L 796.445312 796.445312 L 13.445312 796.445312 Z M 13.445312 13.445312 " clip-rule="nonzero"/></clipPath></defs><g clip-path="url(#1ec6f76752)"><path fill="#3f5896" d="M 681.765625 128.109375 C 607.820312 54.167969 509.511719 13.445312 404.9375 13.445312 C 300.367188 13.445312 202.054688 54.167969 128.109375 128.109375 C 54.167969 202.054688 13.445312 300.367188 13.445312 404.9375 C 13.445312 509.507812 54.167969 607.820312 128.109375 681.765625 C 202.054688 755.710938 300.367188 796.429688 404.9375 796.429688 C 509.511719 796.429688 607.820312 755.710938 681.765625 681.765625 C 755.710938 607.820312 796.429688 509.507812 796.429688 404.9375 C 796.429688 300.367188 755.710938 202.054688 681.765625 128.109375 Z M 145.875 145.875 C 215.074219 76.675781 307.078125 38.566406 404.9375 38.566406 C 502.800781 38.566406 594.800781 76.675781 664 145.875 C 733.199219 215.074219 771.308594 307.078125 771.308594 404.9375 C 771.308594 486.289062 744.949219 563.578125 696.3125 627.097656 C 657.605469 572.976562 595.792969 541 528.667969 541 L 281.207031 541 C 214.082031 541 152.269531 572.976562 113.5625 627.097656 C 64.925781 563.578125 38.566406 486.289062 38.566406 404.9375 C 38.566406 307.078125 76.675781 215.074219 145.875 145.875 Z M 404.9375 520.359375 C 505.523438 520.359375 587.355469 438.527344 587.355469 337.941406 C 587.355469 237.359375 505.523438 155.527344 404.9375 155.527344 C 304.351562 155.527344 222.519531 237.359375 222.519531 337.941406 C 222.519531 438.527344 304.351562 520.359375 404.9375 520.359375 Z M 404.9375 520.359375 " fill-opacity="1" fill-rule="nonzero"/></g><path stroke-linecap="butt" transform="matrix(0.000000000000000046, -0.749128, 0.75, 0.000000000000000046, 222.537415, 550.48816)" fill="none" stroke-linejoin="miter" d="M -0.000161447 15.002198 L 282.338424 15.002198 " stroke="#3f5896" stroke-width="30" stroke-opacity="1" stroke-miterlimit="4"/></svg>